# xmcd
#
# Track frame offsets: 
#        150
#        13526
#        23201
#        37950
#        53042
#        65498
#        80975
#        91408
#        101274
#        109681
#
# Disc length: 1604 seconds
#
# Revision: 0
# Processed by: cddbd v1.5.2PL0 Copyright (c) Steve Scherf et al.
# Submitted via: ExactAudioCopy v1.0b3
#
DISCID=7506420a
DTITLE=María Teresa Chacín - Ahora
DYEAR=1976
DGENRE=Vocal
TTITLE0=Ahora
TTITLE1=Me Olvidé
TTITLE2=Déjame Sola
TTITLE3=Yo Te Recuerdo
TTITLE4=De Vez En Cuando
TTITLE5=Te Extraño
TTITLE6=Yo
TTITLE7=Mi Adios
TTITLE8=No
TTITLE9=Nace El Sol 
EXTD=
EXTT0=
EXTT1=
EXTT2=
EXTT3=
EXTT4=
EXTT5=
EXTT6=
EXTT7=
EXTT8=
EXTT9=
PLAYORDER=
